<svg width="21" height="21" viewBox="0 0 21 21" fill="none" xmlns="http://www.w3.org/2000/svg">
<path d="M18.4954 1.75644C17.3703 0.631783 15.8445 0 14.2537 0C12.6629 0 11.1371 0.631783 10.012 1.75644L3.4401 8.24862C3.30038 8.38753 3.18958 8.55276 3.11411 8.73476C3.03864 8.91676 2.99999 9.11191 3.00042 9.30894V16.1883L0.219792 18.968C0.150109 19.0377 0.0948339 19.1204 0.0571219 19.2115C0.0194099 19.3025 0 19.4001 0 19.4986C0 19.5972 0.0194099 19.6948 0.0571219 19.7858C0.0948339 19.8768 0.150109 19.9596 0.219792 20.0293C0.360523 20.17 0.551394 20.249 0.750417 20.249C0.848963 20.249 0.946545 20.2296 1.03759 20.1919C1.12863 20.1542 1.21136 20.0989 1.28104 20.0293L4.06167 17.2486H10.941C11.1378 17.2489 11.3327 17.2103 11.5145 17.135C11.6964 17.0597 11.8615 16.9492 12.0004 16.8099L18.4907 10.2474C19.049 9.69043 19.4921 9.02888 19.7945 8.30057C20.0969 7.57227 20.2528 6.79148 20.2533 6.00288C20.2537 5.21427 20.0987 4.43332 19.797 3.70468C19.4954 2.97604 19.0531 2.314 18.4954 1.75644ZM11.0695 2.81675C11.898 1.98788 13.0172 1.51493 14.189 1.49848C15.3608 1.48203 16.4928 1.92338 17.3443 2.72866C18.1957 3.53395 18.6994 4.63963 18.7482 5.81055C18.7971 6.98147 18.3872 8.12525 17.6057 8.99862H12.3126L15.5329 5.77925C15.6736 5.63852 15.7527 5.44765 15.7527 5.24863C15.7527 5.0496 15.6736 4.85873 15.5329 4.718C15.3922 4.57727 15.2013 4.49821 15.0023 4.49821C14.8033 4.49821 14.6124 4.57727 14.4717 4.718L9.00042 10.1883V4.86144L11.0695 2.81675ZM4.50042 9.31269L7.50042 6.34363V11.6874L4.50042 14.6874V9.31269ZM10.941 15.7486H5.56167L10.8117 10.4986H16.131L10.941 15.7486Z" fill="#093F20"/>
</svg>
