<svg width="20" height="21" viewBox="0 0 20 21" fill="none" xmlns="http://www.w3.org/2000/svg">
<path d="M16.8604 11.1396L11.2551 16.8087C11.1178 16.9476 10.9543 17.0579 10.7741 17.1332C10.5938 17.2086 10.4004 17.2474 10.2051 17.2474H4.06167L1.28104 20.0318C1.21136 20.1015 1.12863 20.1567 1.03759 20.1945C0.946545 20.2322 0.848963 20.2516 0.750417 20.2516C0.651871 20.2516 0.55429 20.2322 0.463245 20.1945C0.3722 20.1567 0.289475 20.1015 0.219792 20.0318C0.150109 19.9621 0.0948341 19.8794 0.0571221 19.7883C0.0194101 19.6973 0 19.5997 0 19.5012C0 19.4026 0.0194101 19.305 0.0571221 19.214C0.0948341 19.1229 0.150109 19.0402 0.219792 18.9705L2.3376 16.8537L8.69104 10.5012H16.5942C16.6681 10.5013 16.7403 10.5232 16.8018 10.5643C16.8632 10.6053 16.9112 10.6636 16.9396 10.7318C16.9681 10.8 16.9757 10.8751 16.9617 10.9477C16.9476 11.0202 16.9123 11.087 16.8604 11.1396ZM17.316 1.3671C16.1653 0.420064 14.7032 -0.0647839 13.2146 0.00696154C11.7259 0.078707 10.3173 0.70191 9.26292 1.75522L8.36292 2.64397C8.29203 2.71344 8.25158 2.80817 8.25042 2.90741V8.81366L13.4067 3.65741C13.5485 3.52269 13.7373 3.4487 13.9328 3.4512C14.1284 3.45371 14.3153 3.53251 14.4536 3.67081C14.5919 3.80911 14.6707 3.99597 14.6732 4.19154C14.6757 4.38711 14.6017 4.57592 14.467 4.71772L10.192 9.00116H18.4776C18.5465 9.0013 18.614 8.98248 18.6729 8.94676C18.7318 8.91104 18.7797 8.8598 18.8114 8.79866C19.454 7.57673 19.6562 6.17074 19.3838 4.81725C19.1115 3.46376 18.3813 2.24537 17.316 1.3671ZM2.89073 14.179L6.75042 10.3193V5.13491C6.75029 5.061 6.72833 4.98878 6.68729 4.92731C6.64626 4.86585 6.58797 4.81788 6.51976 4.78943C6.45154 4.76098 6.37645 4.75333 6.3039 4.76742C6.23135 4.78152 6.16458 4.81674 6.11198 4.86866L2.6901 8.25116C2.55038 8.39007 2.43958 8.5553 2.36411 8.73729C2.28864 8.91929 2.25 9.11445 2.25042 9.31147V13.9137C2.25036 13.9879 2.27232 14.0604 2.31352 14.1222C2.35472 14.1839 2.41331 14.232 2.48187 14.2604C2.55043 14.2888 2.62588 14.2962 2.69866 14.2817C2.77144 14.2672 2.83828 14.2315 2.89073 14.179Z" fill="#093F20"/>
</svg>
