<svg width="64" height="64" viewBox="0 0 64 64" fill="none" xmlns="http://www.w3.org/2000/svg">
<g opacity="0.1">
<path d="M52.5874 32.34C52.3849 32.2225 52.1624 32.1101 51.9324 32C52.1624 31.89 52.3849 31.7775 52.5874 31.66C53.7339 31.0082 54.7401 30.1361 55.5481 29.0938C56.3561 28.0515 56.95 26.8597 57.2955 25.587C57.6411 24.3142 57.7314 22.9857 57.5615 21.6779C57.3915 20.3701 56.9645 19.1089 56.3051 17.9668C55.6456 16.8247 54.7668 15.8243 53.7192 15.0232C52.6716 14.2221 51.4759 13.6361 50.2009 13.2991C48.9259 12.962 47.5968 12.8804 46.2902 13.0591C44.9835 13.2377 43.7251 13.6731 42.5874 14.34C42.3849 14.4575 42.1749 14.59 41.9674 14.7375C41.9874 14.4875 41.9999 14.2375 41.9999 13.9875C41.9999 11.3354 40.9464 8.79185 39.071 6.91648C37.1956 5.04112 34.6521 3.98755 31.9999 3.98755C29.3478 3.98755 26.8042 5.04112 24.9289 6.91648C23.0535 8.79185 21.9999 11.3354 21.9999 13.9875C21.9999 14.2225 21.9999 14.4725 22.0324 14.7375C21.8249 14.595 21.6149 14.4575 21.4124 14.34C20.2747 13.6731 19.0163 13.2377 17.7097 13.0591C16.403 12.8804 15.074 12.962 13.799 13.2991C12.524 13.6361 11.3282 14.2221 10.2806 15.0232C9.23302 15.8243 8.3542 16.8247 7.69479 17.9668C7.03538 19.1089 6.60838 20.3701 6.4384 21.6779C6.26841 22.9857 6.35879 24.3142 6.70433 25.587C7.04986 26.8597 7.64374 28.0515 8.45175 29.0938C9.25977 30.1361 10.266 31.0082 11.4124 31.66C11.6149 31.7775 11.8374 31.89 12.0674 32C11.8374 32.1101 11.6149 32.2225 11.4124 32.34C10.266 32.9919 9.25977 33.864 8.45175 34.9063C7.64374 35.9486 7.04986 37.1404 6.70433 38.4131C6.35879 39.6859 6.26841 41.0144 6.4384 42.3222C6.60838 43.63 7.03538 44.8912 7.69479 46.0333C8.3542 47.1754 9.23302 48.1758 10.2806 48.9769C11.3282 49.778 12.524 50.364 13.799 50.701C15.074 51.0381 16.403 51.1197 17.7097 50.941C19.0163 50.7624 20.2747 50.327 21.4124 49.66C21.6149 49.5425 21.8249 49.41 22.0324 49.2626C22.0124 49.5126 21.9999 49.7626 21.9999 50C21.9999 52.6522 23.0535 55.1958 24.9289 57.0711C26.8042 58.9465 29.3478 60 31.9999 60C34.6521 60 37.1956 58.9465 39.071 57.0711C40.9464 55.1958 41.9999 52.6522 41.9999 50C41.9999 49.765 41.9874 49.515 41.9674 49.2626C42.1749 49.4051 42.3849 49.5425 42.5874 49.66C44.1022 50.5376 45.8218 50.9998 47.5724 51C48.4521 50.9989 49.3278 50.8829 50.1774 50.655C52.0879 50.143 53.8036 49.0759 55.1075 47.5888C56.4115 46.1016 57.2452 44.2612 57.5032 42.3002C57.7611 40.3393 57.4318 38.3458 56.5568 36.572C55.6818 34.7982 54.3004 33.3238 52.5874 32.335V32.34ZM25.9999 32C25.9999 30.8134 26.3518 29.6533 27.0111 28.6666C27.6704 27.6799 28.6075 26.9109 29.7038 26.4568C30.8002 26.0026 32.0066 25.8838 33.1705 26.1153C34.3344 26.3468 35.4035 26.9183 36.2426 27.7574C37.0817 28.5965 37.6531 29.6656 37.8846 30.8295C38.1161 31.9934 37.9973 33.1998 37.5432 34.2962C37.0891 35.3925 36.32 36.3296 35.3333 36.9889C34.3467 37.6482 33.1866 38 31.9999 38C30.4086 38 28.8825 37.3679 27.7573 36.2427C26.6321 35.1175 25.9999 33.5913 25.9999 32ZM44.5874 17.8025C45.2698 17.4086 46.0231 17.1529 46.8043 17.05C47.5855 16.9472 48.3793 16.9992 49.1404 17.2032C49.9015 17.4071 50.615 17.759 51.2401 18.2386C51.8652 18.7183 52.3897 19.3164 52.7837 19.9988C53.1776 20.6812 53.4333 21.4345 53.5362 22.2157C53.639 22.9969 53.587 23.7907 53.3831 24.5518C53.1791 25.3129 52.8273 26.0263 52.3476 26.6515C51.8679 27.2766 51.2698 27.8011 50.5874 28.195C49.0199 29.1025 45.9349 29.7276 41.7974 29.9925C41.361 27.8759 40.2505 25.9577 38.6324 24.525C40.9324 21.07 43.0199 18.71 44.5874 17.8025ZM31.9999 8.00005C33.5912 8.00005 35.1173 8.63219 36.2426 9.75741C37.3678 10.8826 37.9999 12.4087 37.9999 14C37.9999 15.81 36.9999 18.7975 35.1599 22.515C33.1092 21.8284 30.8906 21.8284 28.8399 22.515C26.9999 18.7975 25.9999 15.81 25.9999 14C25.9999 12.4087 26.6321 10.8826 27.7573 9.75741C28.8825 8.63219 30.4086 8.00005 31.9999 8.00005ZM11.2149 20C11.6088 19.3174 12.1333 18.719 12.7584 18.2391C13.3836 17.7592 14.0972 17.4071 14.8584 17.2031C15.6197 16.999 16.4137 16.9469 17.1951 17.0498C17.9765 17.1526 18.7299 17.4084 19.4124 17.8025C20.9799 18.71 23.0674 21.07 25.3674 24.525C23.7479 25.9596 22.6374 27.8807 22.2024 30C18.0649 29.7351 14.9799 29.1101 13.4124 28.205C12.7288 27.8112 12.1295 27.2864 11.649 26.6606C11.1684 26.0349 10.816 25.3205 10.6118 24.5583C10.4077 23.7962 10.3559 23.0013 10.4594 22.2191C10.5629 21.437 10.8196 20.6829 11.2149 20ZM19.4124 46.1975C18.0343 46.9932 16.3965 47.2088 14.8594 46.7969C13.3223 46.385 12.0118 45.3794 11.2162 44.0013C10.4205 42.6232 10.2049 40.9854 10.6168 39.4483C11.0287 37.9112 12.0343 36.6007 13.4124 35.805C14.9799 34.8976 18.0649 34.2725 22.2024 34.0075C22.6389 36.1242 23.7493 38.0424 25.3674 39.475C23.0674 42.93 20.9799 45.29 19.4124 46.1975ZM31.9999 56C30.4086 56 28.8825 55.3679 27.7573 54.2427C26.6321 53.1175 25.9999 51.5913 25.9999 50C25.9999 48.19 26.9999 45.2025 28.8399 41.4851C30.8906 42.1717 33.1092 42.1717 35.1599 41.4851C36.9999 45.2025 37.9999 48.19 37.9999 50C37.9999 51.5913 37.3678 53.1175 36.2426 54.2427C35.1173 55.3679 33.5912 56 31.9999 56ZM52.7849 44C52.3911 44.6827 51.8666 45.2811 51.2414 45.761C50.6163 46.2409 49.9027 46.593 49.1414 46.797C48.3802 47.0011 47.5862 47.0532 46.8048 46.9503C46.0234 46.8475 45.2699 46.5917 44.5874 46.1975C43.0199 45.29 40.9324 42.93 38.6324 39.475C40.2519 38.0405 41.3625 36.1194 41.7974 34C45.9349 34.265 49.0199 34.89 50.5874 35.795C51.2711 36.1889 51.8703 36.7137 52.3509 37.3395C52.8315 37.9652 53.1839 38.6796 53.388 39.4418C53.5921 40.2039 53.6439 40.9988 53.5404 41.781C53.437 42.5631 53.1802 43.3172 52.7849 44Z" fill="black"/>
</g>
</svg>
