<svg width="20" height="20" viewBox="0 0 20 20" fill="none" xmlns="http://www.w3.org/2000/svg">
<path d="M19.2241 2.80227C19.117 2.1711 18.8163 1.58885 18.3637 1.13617C17.911 0.683491 17.3287 0.382785 16.6976 0.275707C13.6629 -0.238981 7.94224 -0.474293 3.73474 3.73508C-0.472755 7.94446 -0.239318 13.6632 0.27537 16.6979C0.382733 17.3297 0.684128 17.9124 1.13772 18.3652C1.59131 18.818 2.1746 19.1183 2.80662 19.2245C3.86988 19.4058 4.94644 19.498 6.02506 19.5001C9.03349 19.5001 12.7797 18.7501 15.7647 15.7651C19.9732 11.5576 19.7388 5.83696 19.2241 2.80227ZM13.4482 1.48977C14.4538 1.49332 15.4573 1.58112 16.4482 1.75227C16.7727 1.8077 17.072 1.9626 17.3046 2.19556C17.5372 2.42851 17.6917 2.728 17.7466 3.05258C17.94 4.17368 18.0248 5.31082 17.9997 6.44821L13.0507 1.50008C13.1819 1.49258 13.3122 1.49071 13.4482 1.49071V1.48977ZM3.05224 17.747C2.7277 17.6918 2.42832 17.5371 2.19554 17.3043C1.96276 17.0715 1.80807 16.7721 1.75287 16.4476C1.55944 15.3265 1.47468 14.1893 1.49974 13.052L6.44787 18.0001C5.31047 18.0256 4.17328 17.9408 3.05224 17.747ZM14.7054 14.7057C13.6169 15.7932 11.5863 17.3054 8.38943 17.8248L1.67506 11.1104C2.19443 7.91352 3.70662 5.88289 4.79412 4.79446C5.88162 3.70602 7.91224 2.19383 11.1091 1.67446L17.8244 8.38977C17.3051 11.5866 15.7929 13.6173 14.7054 14.7057ZM13.2785 6.22133C13.419 6.36197 13.498 6.55266 13.498 6.75149C13.498 6.95031 13.419 7.14101 13.2785 7.28164L11.9341 8.62508L12.5285 9.21946C12.6026 9.28803 12.6621 9.37086 12.7034 9.46298C12.7448 9.55511 12.7671 9.65462 12.769 9.75558C12.7709 9.85652 12.7525 9.95683 12.7147 10.0505C12.6769 10.1441 12.6207 10.2292 12.5492 10.3005C12.4778 10.3719 12.3927 10.4281 12.299 10.4658C12.2054 10.5035 12.105 10.5218 12.0041 10.5198C11.9031 10.5178 11.8036 10.4954 11.7116 10.454C11.6195 10.4126 11.5367 10.353 11.4682 10.2788L10.8747 9.68539L9.68506 10.8751L10.2794 11.4695C10.3536 11.538 10.4132 11.6207 10.4546 11.7128C10.496 11.8049 10.5184 11.9044 10.5204 12.0054C10.5224 12.1063 10.5041 12.2066 10.4664 12.3003C10.4287 12.394 10.3725 12.4791 10.3011 12.5505C10.2298 12.6219 10.1447 12.6782 10.0511 12.716C9.95743 12.7537 9.85713 12.7722 9.75618 12.7703C9.65523 12.7683 9.55571 12.746 9.46358 12.7047C9.37146 12.6634 9.28863 12.6039 9.22006 12.5298L8.62474 11.9345L7.28037 13.2788C7.21142 13.3514 7.12864 13.4094 7.0369 13.4495C6.94517 13.4896 6.84634 13.5109 6.74624 13.5122C6.64614 13.5135 6.54679 13.4947 6.45406 13.457C6.36133 13.4193 6.27709 13.3634 6.20631 13.2926C6.13552 13.2218 6.07962 13.1376 6.0419 13.0448C6.00419 12.9521 5.98542 12.8527 5.9867 12.7527C5.98798 12.6526 6.00929 12.5537 6.04937 12.462C6.08944 12.3703 6.14748 12.2875 6.22006 12.2185L7.56537 10.8751L6.97099 10.2807C6.83949 10.1383 6.76821 9.95057 6.77209 9.75679C6.77598 9.56301 6.85474 9.37826 6.99185 9.24127C7.12896 9.10428 7.31378 9.02569 7.50756 9.02197C7.70135 9.01825 7.88904 9.0897 8.03131 9.22133L8.62568 9.81571L9.81443 8.62508L9.22006 8.03071C9.08842 7.88844 9.01698 7.70075 9.02069 7.50696C9.02441 7.31318 9.103 7.12836 9.23999 6.99125C9.37698 6.85414 9.56173 6.77538 9.75551 6.77149C9.94929 6.76761 10.1371 6.83889 10.2794 6.97039L10.8747 7.56571L12.2191 6.22133C12.3597 6.08107 12.5502 6.0023 12.7488 6.0023C12.9474 6.0023 13.1379 6.08107 13.2785 6.22133Z" fill="#093F20"/>
</svg>
