<svg width="8" height="14" viewBox="0 0 8 14" fill="none" xmlns="http://www.w3.org/2000/svg">
<path d="M0.183297 12.6832C0.125228 12.7412 0.0791659 12.8102 0.0477395 12.886C0.0163126 12.9619 0.000136852 13.0432 0.000136852 13.1253C0.000136852 13.2075 0.0163126 13.2888 0.0477395 13.3647C0.0791659 13.4405 0.125228 13.5095 0.183297 13.5675C0.241366 13.6256 0.310304 13.6717 0.386175 13.7031C0.462045 13.7345 0.543363 13.7507 0.625485 13.7507C0.707607 13.7507 0.788924 13.7345 0.864795 13.7031C0.940666 13.6717 1.0096 13.6256 1.06767 13.5675L7.31767 7.31754C7.37578 7.25949 7.42188 7.19056 7.45333 7.11469C7.48479 7.03881 7.50098 6.95748 7.50098 6.87535C7.50098 6.79321 7.48479 6.71188 7.45333 6.63601C7.42188 6.56014 7.37578 6.49121 7.31767 6.43316L1.06767 0.18316C0.950397 0.0658846 0.791337 -3.26935e-09 0.625485 0C0.459632 3.26935e-09 0.300572 0.0658846 0.183297 0.18316C0.0660214 0.300435 0.000136852 0.459495 0.000136852 0.625347C0.000136852 0.7912 0.0660214 0.95026 0.183297 1.06753L5.99189 6.87535L0.183297 12.6832Z" fill="#093F20"/>
</svg>
