<svg width="67" height="32" viewBox="0 0 67 32" fill="none" xmlns="http://www.w3.org/2000/svg">
<path d="M0 8C0 3.58172 3.58172 0 8 0H67V32H8C3.58172 32 0 28.4183 0 24V8Z" fill="white" fill-opacity="0.2"/>
<path d="M25.3752 11.5C25.8944 11.5 26.4019 11.346 26.8336 11.0576C27.2652 10.7692 27.6017 10.3592 27.8004 9.87955C27.999 9.39989 28.051 8.87209 27.9497 8.36289C27.8485 7.85369 27.5985 7.38596 27.2313 7.01885C26.8642 6.65173 26.3965 6.40173 25.8873 6.30044C25.3781 6.19915 24.8503 6.25114 24.3706 6.44982C23.891 6.6485 23.481 6.98495 23.1926 7.41663C22.9041 7.84831 22.7502 8.35583 22.7502 8.875C22.7502 9.57119 23.0267 10.2389 23.519 10.7312C24.0113 11.2234 24.679 11.5 25.3752 11.5ZM25.3752 7.75C25.5977 7.75 25.8152 7.81598 26.0002 7.9396C26.1852 8.06321 26.3294 8.23892 26.4145 8.44448C26.4997 8.65005 26.522 8.87625 26.4786 9.09448C26.4352 9.31271 26.328 9.51316 26.1707 9.6705C26.0133 9.82783 25.8129 9.93498 25.5947 9.97838C25.3764 10.0218 25.1502 9.99951 24.9447 9.91437C24.7391 9.82922 24.5634 9.68502 24.4398 9.50002C24.3162 9.31501 24.2502 9.09751 24.2502 8.875C24.2502 8.57663 24.3687 8.29048 24.5797 8.07951C24.7907 7.86853 25.0768 7.75 25.3752 7.75ZM33.8952 22.3675L28.7802 13.735C28.6483 13.5101 28.4596 13.3239 28.233 13.1949C28.0064 13.0659 27.75 12.9987 27.4892 13C27.2287 12.9986 26.9723 13.0658 26.7459 13.1948C26.5195 13.3238 26.3309 13.5101 26.1992 13.735L23.7467 17.875L19.543 10.7406C19.4105 10.5155 19.2216 10.3289 18.9948 10.1992C18.7681 10.0695 18.5114 10.0013 18.2502 10.0013C17.989 10.0013 17.7323 10.0695 17.5055 10.1992C17.2788 10.3289 17.0898 10.5155 16.9574 10.7406L10.1042 22.3694C10.0372 22.4833 10.0014 22.6129 10.0005 22.745C9.99963 22.8772 10.0337 23.0073 10.0993 23.122C10.1648 23.2368 10.2596 23.3322 10.3739 23.3986C10.4882 23.465 10.618 23.4999 10.7502 23.5H33.2502C33.3826 23.5 33.5126 23.4649 33.627 23.3984C33.7415 23.3318 33.8363 23.2362 33.9018 23.1212C33.9673 23.0061 34.0012 22.8758 34 22.7435C33.9989 22.6111 33.9627 22.4814 33.8952 22.3675ZM18.2502 11.5L20.4599 15.25H16.0405L18.2502 11.5ZM12.0627 22L15.1564 16.75H21.3439L23.1008 19.7313L24.4377 22H12.0627ZM26.1786 22L24.6167 19.3488L27.4892 14.5L31.9377 22H26.1786Z" fill="#DFFCA1"/>
</svg>
